<mxfile host="app.diagrams.net" modified="2024-06-05T17:15:14.392Z" agent="Mozilla/5.0 (Windows NT 10.0; Win64; x64) AppleWebKit/537.36 (KHTML, like Gecko) Chrome/125.0.0.0 Safari/537.36" etag="1KFsFRG0OAflvFCoTxtD" version="24.4.14" type="device" pages="3">
  <diagram name="AuthenticationProcess" id="hsOR1si3nbYcK1I_EsRU">
    <mxGraphModel dx="1050" dy="522" grid="1" gridSize="10" guides="1" tooltips="1" connect="1" arrows="1" fold="1" page="1" pageScale="1" pageWidth="850" pageHeight="1100" math="0" shadow="0">
      <root>
        <mxCell id="0" />
        <mxCell id="1" parent="0" />
        <mxCell id="zWQ8M3NlGJpIa28wDBu6-3" value="" style="edgeStyle=orthogonalEdgeStyle;rounded=0;orthogonalLoop=1;jettySize=auto;html=1;" edge="1" parent="1" source="zWQ8M3NlGJpIa28wDBu6-1" target="zWQ8M3NlGJpIa28wDBu6-2">
          <mxGeometry relative="1" as="geometry" />
        </mxCell>
        <mxCell id="zWQ8M3NlGJpIa28wDBu6-1" value="Empoyee" style="html=1;dashed=0;whiteSpace=wrap;" vertex="1" parent="1">
          <mxGeometry x="50" y="250" width="100" height="50" as="geometry" />
        </mxCell>
        <mxCell id="zWQ8M3NlGJpIa28wDBu6-7" value="" style="edgeStyle=orthogonalEdgeStyle;rounded=0;orthogonalLoop=1;jettySize=auto;html=1;" edge="1" parent="1" target="zWQ8M3NlGJpIa28wDBu6-4">
          <mxGeometry relative="1" as="geometry">
            <mxPoint x="476.65999999999997" y="223.17" as="sourcePoint" />
            <Array as="points">
              <mxPoint x="476.65999999999997" y="138.17" />
              <mxPoint x="476.65999999999997" y="138.17" />
            </Array>
          </mxGeometry>
        </mxCell>
        <mxCell id="zWQ8M3NlGJpIa28wDBu6-11" style="edgeStyle=orthogonalEdgeStyle;rounded=0;orthogonalLoop=1;jettySize=auto;html=1;entryX=0;entryY=0.5;entryDx=0;entryDy=0;" edge="1" parent="1" source="zWQ8M3NlGJpIa28wDBu6-2" target="zWQ8M3NlGJpIa28wDBu6-10">
          <mxGeometry relative="1" as="geometry" />
        </mxCell>
        <mxCell id="zWQ8M3NlGJpIa28wDBu6-2" value="Enter Credentials" style="shape=ellipse;html=1;dashed=0;whiteSpace=wrap;perimeter=ellipsePerimeter;" vertex="1" parent="1">
          <mxGeometry x="250" y="225" width="100" height="100" as="geometry" />
        </mxCell>
        <mxCell id="zWQ8M3NlGJpIa28wDBu6-6" value="" style="edgeStyle=orthogonalEdgeStyle;rounded=0;orthogonalLoop=1;jettySize=auto;html=1;" edge="1" parent="1" source="zWQ8M3NlGJpIa28wDBu6-4">
          <mxGeometry relative="1" as="geometry">
            <mxPoint x="490.06000000000006" y="224.9990543999809" as="targetPoint" />
            <Array as="points">
              <mxPoint x="489.65999999999997" y="208.17" />
              <mxPoint x="489.65999999999997" y="208.17" />
            </Array>
          </mxGeometry>
        </mxCell>
        <mxCell id="zWQ8M3NlGJpIa28wDBu6-4" value="Employee Database" style="html=1;dashed=0;whiteSpace=wrap;shape=partialRectangle;right=0;left=0;" vertex="1" parent="1">
          <mxGeometry x="406.65999999999997" y="88.17" width="166.67" height="50" as="geometry" />
        </mxCell>
        <mxCell id="zWQ8M3NlGJpIa28wDBu6-14" value="" style="edgeStyle=orthogonalEdgeStyle;rounded=0;orthogonalLoop=1;jettySize=auto;html=1;" edge="1" parent="1" source="zWQ8M3NlGJpIa28wDBu6-10" target="zWQ8M3NlGJpIa28wDBu6-12">
          <mxGeometry relative="1" as="geometry" />
        </mxCell>
        <mxCell id="zWQ8M3NlGJpIa28wDBu6-10" value="Check User" style="shape=ellipse;html=1;dashed=0;whiteSpace=wrap;perimeter=ellipsePerimeter;" vertex="1" parent="1">
          <mxGeometry x="440" y="225" width="100" height="100" as="geometry" />
        </mxCell>
        <mxCell id="zWQ8M3NlGJpIa28wDBu6-12" value="Show Dashboard" style="shape=ellipse;html=1;dashed=0;whiteSpace=wrap;perimeter=ellipsePerimeter;" vertex="1" parent="1">
          <mxGeometry x="650" y="225" width="100" height="100" as="geometry" />
        </mxCell>
        <mxCell id="zWQ8M3NlGJpIa28wDBu6-17" value="" style="edgeStyle=orthogonalEdgeStyle;rounded=0;orthogonalLoop=1;jettySize=auto;html=1;exitX=0;exitY=1;exitDx=0;exitDy=0;" edge="1" parent="1" source="zWQ8M3NlGJpIa28wDBu6-16" target="zWQ8M3NlGJpIa28wDBu6-2">
          <mxGeometry relative="1" as="geometry">
            <Array as="points">
              <mxPoint x="374" y="380" />
              <mxPoint x="300" y="380" />
            </Array>
          </mxGeometry>
        </mxCell>
        <mxCell id="zWQ8M3NlGJpIa28wDBu6-16" value="" style="shape=partialRectangle;whiteSpace=wrap;html=1;top=0;left=0;fillColor=none;" vertex="1" parent="1">
          <mxGeometry x="374" y="327" width="120" height="53" as="geometry" />
        </mxCell>
      </root>
    </mxGraphModel>
  </diagram>
  <diagram id="vld5b3CpwyRfEFybCm_L" name="Sale (POS)">
    <mxGraphModel dx="1105" dy="549" grid="1" gridSize="10" guides="1" tooltips="1" connect="1" arrows="1" fold="1" page="1" pageScale="1" pageWidth="850" pageHeight="1100" math="0" shadow="0">
      <root>
        <mxCell id="0" />
        <mxCell id="1" parent="0" />
        <mxCell id="-sx_3Ie9QYcHqM50zWeC-7" value="" style="edgeStyle=orthogonalEdgeStyle;rounded=0;orthogonalLoop=1;jettySize=auto;html=1;" edge="1" parent="1" source="zSVfFqCCyFZweAwV4zwF-1" target="-sx_3Ie9QYcHqM50zWeC-6">
          <mxGeometry relative="1" as="geometry" />
        </mxCell>
        <mxCell id="-sx_3Ie9QYcHqM50zWeC-8" value="" style="edgeStyle=orthogonalEdgeStyle;rounded=0;orthogonalLoop=1;jettySize=auto;html=1;" edge="1" parent="1" source="zSVfFqCCyFZweAwV4zwF-1" target="NNxJBgShX6hpCv6GkTwi-7">
          <mxGeometry relative="1" as="geometry" />
        </mxCell>
        <mxCell id="zSVfFqCCyFZweAwV4zwF-1" value="Customer" style="html=1;dashed=0;whiteSpace=wrap;" vertex="1" parent="1">
          <mxGeometry x="50" y="330" width="100" height="50" as="geometry" />
        </mxCell>
        <mxCell id="NNxJBgShX6hpCv6GkTwi-11" value="" style="edgeStyle=orthogonalEdgeStyle;rounded=0;orthogonalLoop=1;jettySize=auto;html=1;" edge="1" parent="1" source="NNxJBgShX6hpCv6GkTwi-7" target="NNxJBgShX6hpCv6GkTwi-10">
          <mxGeometry relative="1" as="geometry" />
        </mxCell>
        <mxCell id="NNxJBgShX6hpCv6GkTwi-7" value="Buy" style="ellipse;whiteSpace=wrap;html=1;dashed=0;" vertex="1" parent="1">
          <mxGeometry x="60" y="155" width="80" height="80" as="geometry" />
        </mxCell>
        <mxCell id="NNxJBgShX6hpCv6GkTwi-14" value="" style="edgeStyle=orthogonalEdgeStyle;rounded=0;orthogonalLoop=1;jettySize=auto;html=1;" edge="1" parent="1" source="NNxJBgShX6hpCv6GkTwi-10" target="NNxJBgShX6hpCv6GkTwi-13">
          <mxGeometry relative="1" as="geometry" />
        </mxCell>
        <mxCell id="NNxJBgShX6hpCv6GkTwi-10" value="Sale Person" style="whiteSpace=wrap;html=1;dashed=0;" vertex="1" parent="1">
          <mxGeometry x="210" y="165" width="120" height="60" as="geometry" />
        </mxCell>
        <mxCell id="NNxJBgShX6hpCv6GkTwi-16" value="" style="edgeStyle=orthogonalEdgeStyle;rounded=0;orthogonalLoop=1;jettySize=auto;html=1;" edge="1" parent="1" source="NNxJBgShX6hpCv6GkTwi-13" target="NNxJBgShX6hpCv6GkTwi-15">
          <mxGeometry relative="1" as="geometry" />
        </mxCell>
        <mxCell id="NNxJBgShX6hpCv6GkTwi-19" value="" style="edgeStyle=orthogonalEdgeStyle;rounded=0;orthogonalLoop=1;jettySize=auto;html=1;" edge="1" parent="1" source="NNxJBgShX6hpCv6GkTwi-13" target="NNxJBgShX6hpCv6GkTwi-18">
          <mxGeometry relative="1" as="geometry" />
        </mxCell>
        <mxCell id="NNxJBgShX6hpCv6GkTwi-13" value="customer information" style="ellipse;whiteSpace=wrap;html=1;dashed=0;" vertex="1" parent="1">
          <mxGeometry x="430" y="155" width="80" height="80" as="geometry" />
        </mxCell>
        <mxCell id="NNxJBgShX6hpCv6GkTwi-17" value="" style="edgeStyle=orthogonalEdgeStyle;rounded=0;orthogonalLoop=1;jettySize=auto;html=1;" edge="1" parent="1" source="NNxJBgShX6hpCv6GkTwi-15" target="NNxJBgShX6hpCv6GkTwi-13">
          <mxGeometry relative="1" as="geometry" />
        </mxCell>
        <mxCell id="NNxJBgShX6hpCv6GkTwi-15" value="Customer Database" style="html=1;dashed=0;whiteSpace=wrap;shape=partialRectangle;right=0;left=0;" vertex="1" parent="1">
          <mxGeometry x="420" y="50" width="100" height="30" as="geometry" />
        </mxCell>
        <mxCell id="NNxJBgShX6hpCv6GkTwi-25" value="" style="edgeStyle=orthogonalEdgeStyle;rounded=0;orthogonalLoop=1;jettySize=auto;html=1;" edge="1" parent="1" source="NNxJBgShX6hpCv6GkTwi-18" target="NNxJBgShX6hpCv6GkTwi-24">
          <mxGeometry relative="1" as="geometry" />
        </mxCell>
        <mxCell id="NNxJBgShX6hpCv6GkTwi-18" value="Sale information" style="ellipse;whiteSpace=wrap;html=1;dashed=0;" vertex="1" parent="1">
          <mxGeometry x="590" y="155" width="80" height="80" as="geometry" />
        </mxCell>
        <mxCell id="NNxJBgShX6hpCv6GkTwi-22" value="" style="edgeStyle=orthogonalEdgeStyle;rounded=0;orthogonalLoop=1;jettySize=auto;html=1;" edge="1" parent="1" source="NNxJBgShX6hpCv6GkTwi-23">
          <mxGeometry relative="1" as="geometry">
            <mxPoint x="630" y="155" as="targetPoint" />
          </mxGeometry>
        </mxCell>
        <mxCell id="NNxJBgShX6hpCv6GkTwi-23" value="Sale&amp;nbsp;&lt;div&gt;Database&lt;/div&gt;" style="html=1;dashed=0;whiteSpace=wrap;shape=partialRectangle;right=0;left=0;" vertex="1" parent="1">
          <mxGeometry x="580" y="50" width="100" height="30" as="geometry" />
        </mxCell>
        <mxCell id="NNxJBgShX6hpCv6GkTwi-27" value="" style="edgeStyle=orthogonalEdgeStyle;rounded=0;orthogonalLoop=1;jettySize=auto;html=1;" edge="1" parent="1" source="NNxJBgShX6hpCv6GkTwi-24" target="NNxJBgShX6hpCv6GkTwi-26">
          <mxGeometry relative="1" as="geometry" />
        </mxCell>
        <mxCell id="-sx_3Ie9QYcHqM50zWeC-3" value="" style="edgeStyle=orthogonalEdgeStyle;rounded=0;orthogonalLoop=1;jettySize=auto;html=1;" edge="1" parent="1" source="NNxJBgShX6hpCv6GkTwi-24" target="-sx_3Ie9QYcHqM50zWeC-2">
          <mxGeometry relative="1" as="geometry" />
        </mxCell>
        <mxCell id="NNxJBgShX6hpCv6GkTwi-24" value="Invoice" style="ellipse;whiteSpace=wrap;html=1;dashed=0;" vertex="1" parent="1">
          <mxGeometry x="750" y="155" width="80" height="80" as="geometry" />
        </mxCell>
        <mxCell id="NNxJBgShX6hpCv6GkTwi-26" value="Membership" style="ellipse;whiteSpace=wrap;html=1;dashed=0;" vertex="1" parent="1">
          <mxGeometry x="750" y="315" width="80" height="80" as="geometry" />
        </mxCell>
        <mxCell id="-sx_3Ie9QYcHqM50zWeC-2" value="Delivery" style="ellipse;whiteSpace=wrap;html=1;dashed=0;" vertex="1" parent="1">
          <mxGeometry x="910" y="155" width="80" height="80" as="geometry" />
        </mxCell>
        <mxCell id="-sx_3Ie9QYcHqM50zWeC-10" value="" style="edgeStyle=orthogonalEdgeStyle;rounded=0;orthogonalLoop=1;jettySize=auto;html=1;" edge="1" parent="1" source="-sx_3Ie9QYcHqM50zWeC-6" target="NNxJBgShX6hpCv6GkTwi-10">
          <mxGeometry relative="1" as="geometry" />
        </mxCell>
        <mxCell id="-sx_3Ie9QYcHqM50zWeC-12" value="" style="edgeStyle=orthogonalEdgeStyle;rounded=0;orthogonalLoop=1;jettySize=auto;html=1;exitX=1;exitY=1;exitDx=0;exitDy=0;" edge="1" parent="1" source="NNxJBgShX6hpCv6GkTwi-10" target="-sx_3Ie9QYcHqM50zWeC-11">
          <mxGeometry relative="1" as="geometry" />
        </mxCell>
        <mxCell id="-sx_3Ie9QYcHqM50zWeC-6" value="Sale Return" style="ellipse;whiteSpace=wrap;html=1;dashed=0;" vertex="1" parent="1">
          <mxGeometry x="230" y="315" width="80" height="80" as="geometry" />
        </mxCell>
        <mxCell id="-sx_3Ie9QYcHqM50zWeC-11" value="Information &amp;amp; Invoice" style="ellipse;whiteSpace=wrap;html=1;dashed=0;" vertex="1" parent="1">
          <mxGeometry x="390" y="315" width="80" height="80" as="geometry" />
        </mxCell>
      </root>
    </mxGraphModel>
  </diagram>
  <diagram id="wXti6OL87OB3Laxx1qt3" name="Inventory">
    <mxGraphModel dx="2100" dy="1044" grid="1" gridSize="10" guides="1" tooltips="1" connect="1" arrows="1" fold="1" page="1" pageScale="1" pageWidth="850" pageHeight="1100" math="0" shadow="0">
      <root>
        <mxCell id="0" />
        <mxCell id="1" parent="0" />
        <mxCell id="HoLcE1Kdy49_vLGoXcqK-48" value="" style="edgeStyle=orthogonalEdgeStyle;rounded=0;orthogonalLoop=1;jettySize=auto;html=1;" edge="1" parent="1" source="HoLcE1Kdy49_vLGoXcqK-1" target="HoLcE1Kdy49_vLGoXcqK-6">
          <mxGeometry relative="1" as="geometry" />
        </mxCell>
        <mxCell id="HoLcE1Kdy49_vLGoXcqK-49" value="" style="edgeStyle=orthogonalEdgeStyle;rounded=0;orthogonalLoop=1;jettySize=auto;html=1;" edge="1" parent="1" source="HoLcE1Kdy49_vLGoXcqK-1" target="HoLcE1Kdy49_vLGoXcqK-6">
          <mxGeometry relative="1" as="geometry" />
        </mxCell>
        <mxCell id="HoLcE1Kdy49_vLGoXcqK-50" style="edgeStyle=orthogonalEdgeStyle;rounded=0;orthogonalLoop=1;jettySize=auto;html=1;" edge="1" parent="1" source="HoLcE1Kdy49_vLGoXcqK-1" target="HoLcE1Kdy49_vLGoXcqK-5">
          <mxGeometry relative="1" as="geometry" />
        </mxCell>
        <mxCell id="HoLcE1Kdy49_vLGoXcqK-51" style="edgeStyle=orthogonalEdgeStyle;rounded=0;orthogonalLoop=1;jettySize=auto;html=1;entryX=0;entryY=0.5;entryDx=0;entryDy=0;" edge="1" parent="1" source="HoLcE1Kdy49_vLGoXcqK-1" target="HoLcE1Kdy49_vLGoXcqK-3">
          <mxGeometry relative="1" as="geometry" />
        </mxCell>
        <mxCell id="HoLcE1Kdy49_vLGoXcqK-52" style="edgeStyle=orthogonalEdgeStyle;rounded=0;orthogonalLoop=1;jettySize=auto;html=1;entryX=0;entryY=0.5;entryDx=0;entryDy=0;" edge="1" parent="1" source="HoLcE1Kdy49_vLGoXcqK-1" target="HoLcE1Kdy49_vLGoXcqK-38">
          <mxGeometry relative="1" as="geometry" />
        </mxCell>
        <mxCell id="HoLcE1Kdy49_vLGoXcqK-53" style="edgeStyle=orthogonalEdgeStyle;rounded=0;orthogonalLoop=1;jettySize=auto;html=1;entryX=0;entryY=0.5;entryDx=0;entryDy=0;" edge="1" parent="1" source="HoLcE1Kdy49_vLGoXcqK-1" target="HoLcE1Kdy49_vLGoXcqK-41">
          <mxGeometry relative="1" as="geometry">
            <Array as="points">
              <mxPoint x="160" y="385" />
              <mxPoint x="160" y="840" />
            </Array>
          </mxGeometry>
        </mxCell>
        <mxCell id="HoLcE1Kdy49_vLGoXcqK-1" value="Admin" style="html=1;dashed=0;whiteSpace=wrap;" vertex="1" parent="1">
          <mxGeometry x="10" y="360" width="100" height="50" as="geometry" />
        </mxCell>
        <mxCell id="HoLcE1Kdy49_vLGoXcqK-9" value="" style="edgeStyle=orthogonalEdgeStyle;rounded=0;orthogonalLoop=1;jettySize=auto;html=1;" edge="1" parent="1" source="HoLcE1Kdy49_vLGoXcqK-3" target="HoLcE1Kdy49_vLGoXcqK-8">
          <mxGeometry relative="1" as="geometry" />
        </mxCell>
        <mxCell id="HoLcE1Kdy49_vLGoXcqK-3" value="Buy Products&lt;div&gt;(Import)&lt;/div&gt;" style="ellipse;whiteSpace=wrap;html=1;dashed=0;" vertex="1" parent="1">
          <mxGeometry x="210" y="160" width="80" height="80" as="geometry" />
        </mxCell>
        <mxCell id="HoLcE1Kdy49_vLGoXcqK-17" value="" style="edgeStyle=orthogonalEdgeStyle;rounded=0;orthogonalLoop=1;jettySize=auto;html=1;" edge="1" parent="1" source="HoLcE1Kdy49_vLGoXcqK-5" target="HoLcE1Kdy49_vLGoXcqK-16">
          <mxGeometry relative="1" as="geometry" />
        </mxCell>
        <mxCell id="HoLcE1Kdy49_vLGoXcqK-5" value="Stock Level&lt;div&gt;(&lt;span style=&quot;background-color: initial;&quot;&gt;By group or By item&lt;/span&gt;&lt;span style=&quot;background-color: initial;&quot;&gt;)&lt;/span&gt;&lt;/div&gt;" style="ellipse;whiteSpace=wrap;html=1;dashed=0;" vertex="1" parent="1">
          <mxGeometry x="210" y="280" width="80" height="80" as="geometry" />
        </mxCell>
        <mxCell id="HoLcE1Kdy49_vLGoXcqK-26" style="edgeStyle=orthogonalEdgeStyle;rounded=0;orthogonalLoop=1;jettySize=auto;html=1;entryX=0;entryY=0.5;entryDx=0;entryDy=0;" edge="1" parent="1" source="HoLcE1Kdy49_vLGoXcqK-6" target="HoLcE1Kdy49_vLGoXcqK-20">
          <mxGeometry relative="1" as="geometry" />
        </mxCell>
        <mxCell id="HoLcE1Kdy49_vLGoXcqK-6" value="Exchange Unit" style="ellipse;whiteSpace=wrap;html=1;dashed=0;" vertex="1" parent="1">
          <mxGeometry x="210" y="400" width="80" height="80" as="geometry" />
        </mxCell>
        <mxCell id="HoLcE1Kdy49_vLGoXcqK-29" value="" style="edgeStyle=orthogonalEdgeStyle;rounded=0;orthogonalLoop=1;jettySize=auto;html=1;" edge="1" parent="1" source="HoLcE1Kdy49_vLGoXcqK-7" target="HoLcE1Kdy49_vLGoXcqK-28">
          <mxGeometry relative="1" as="geometry" />
        </mxCell>
        <mxCell id="HoLcE1Kdy49_vLGoXcqK-7" value="Damage" style="ellipse;whiteSpace=wrap;html=1;dashed=0;" vertex="1" parent="1">
          <mxGeometry x="210" y="549" width="80" height="80" as="geometry" />
        </mxCell>
        <mxCell id="HoLcE1Kdy49_vLGoXcqK-13" value="" style="edgeStyle=orthogonalEdgeStyle;rounded=0;orthogonalLoop=1;jettySize=auto;html=1;" edge="1" parent="1" source="HoLcE1Kdy49_vLGoXcqK-8" target="HoLcE1Kdy49_vLGoXcqK-10">
          <mxGeometry relative="1" as="geometry" />
        </mxCell>
        <mxCell id="HoLcE1Kdy49_vLGoXcqK-15" value="" style="edgeStyle=orthogonalEdgeStyle;rounded=0;orthogonalLoop=1;jettySize=auto;html=1;" edge="1" parent="1" source="HoLcE1Kdy49_vLGoXcqK-8" target="HoLcE1Kdy49_vLGoXcqK-14">
          <mxGeometry relative="1" as="geometry" />
        </mxCell>
        <mxCell id="HoLcE1Kdy49_vLGoXcqK-8" value="Information" style="ellipse;whiteSpace=wrap;html=1;dashed=0;" vertex="1" parent="1">
          <mxGeometry x="370" y="160" width="80" height="80" as="geometry" />
        </mxCell>
        <mxCell id="HoLcE1Kdy49_vLGoXcqK-10" value="Stock Database" style="html=1;dashed=0;whiteSpace=wrap;shape=partialRectangle;right=0;left=0;" vertex="1" parent="1">
          <mxGeometry x="360" y="60" width="100" height="30" as="geometry" />
        </mxCell>
        <mxCell id="HoLcE1Kdy49_vLGoXcqK-14" value="Invoice" style="ellipse;whiteSpace=wrap;html=1;dashed=0;" vertex="1" parent="1">
          <mxGeometry x="530" y="160" width="80" height="80" as="geometry" />
        </mxCell>
        <mxCell id="HoLcE1Kdy49_vLGoXcqK-16" value="Price Level, safety stock" style="ellipse;whiteSpace=wrap;html=1;dashed=0;" vertex="1" parent="1">
          <mxGeometry x="370" y="280" width="80" height="80" as="geometry" />
        </mxCell>
        <mxCell id="HoLcE1Kdy49_vLGoXcqK-23" style="edgeStyle=orthogonalEdgeStyle;rounded=0;orthogonalLoop=1;jettySize=auto;html=1;entryX=0;entryY=0.5;entryDx=0;entryDy=0;" edge="1" parent="1" source="HoLcE1Kdy49_vLGoXcqK-20" target="HoLcE1Kdy49_vLGoXcqK-22">
          <mxGeometry relative="1" as="geometry" />
        </mxCell>
        <mxCell id="HoLcE1Kdy49_vLGoXcqK-20" value="Divide" style="ellipse;whiteSpace=wrap;html=1;dashed=0;" vertex="1" parent="1">
          <mxGeometry x="370" y="370" width="80" height="80" as="geometry" />
        </mxCell>
        <mxCell id="HoLcE1Kdy49_vLGoXcqK-25" style="edgeStyle=orthogonalEdgeStyle;rounded=0;orthogonalLoop=1;jettySize=auto;html=1;entryX=0;entryY=0.5;entryDx=0;entryDy=0;" edge="1" parent="1" source="HoLcE1Kdy49_vLGoXcqK-21" target="HoLcE1Kdy49_vLGoXcqK-22">
          <mxGeometry relative="1" as="geometry" />
        </mxCell>
        <mxCell id="HoLcE1Kdy49_vLGoXcqK-21" value="New one" style="ellipse;whiteSpace=wrap;html=1;dashed=0;" vertex="1" parent="1">
          <mxGeometry x="370" y="460" width="80" height="80" as="geometry" />
        </mxCell>
        <mxCell id="HoLcE1Kdy49_vLGoXcqK-22" value="Stock Database" style="html=1;dashed=0;whiteSpace=wrap;shape=partialRectangle;right=0;left=0;" vertex="1" parent="1">
          <mxGeometry x="550" y="430" width="100" height="30" as="geometry" />
        </mxCell>
        <mxCell id="HoLcE1Kdy49_vLGoXcqK-27" style="edgeStyle=orthogonalEdgeStyle;rounded=0;orthogonalLoop=1;jettySize=auto;html=1;entryX=-0.054;entryY=0.612;entryDx=0;entryDy=0;entryPerimeter=0;" edge="1" parent="1" source="HoLcE1Kdy49_vLGoXcqK-6" target="HoLcE1Kdy49_vLGoXcqK-21">
          <mxGeometry relative="1" as="geometry" />
        </mxCell>
        <mxCell id="HoLcE1Kdy49_vLGoXcqK-32" style="edgeStyle=orthogonalEdgeStyle;rounded=0;orthogonalLoop=1;jettySize=auto;html=1;entryX=0;entryY=0.5;entryDx=0;entryDy=0;" edge="1" parent="1" source="HoLcE1Kdy49_vLGoXcqK-28" target="HoLcE1Kdy49_vLGoXcqK-30">
          <mxGeometry relative="1" as="geometry" />
        </mxCell>
        <mxCell id="HoLcE1Kdy49_vLGoXcqK-34" value="" style="edgeStyle=orthogonalEdgeStyle;rounded=0;orthogonalLoop=1;jettySize=auto;html=1;" edge="1" parent="1">
          <mxGeometry relative="1" as="geometry">
            <mxPoint x="410" y="630" as="sourcePoint" />
            <mxPoint x="410" y="710" as="targetPoint" />
          </mxGeometry>
        </mxCell>
        <mxCell id="HoLcE1Kdy49_vLGoXcqK-37" value="No" style="edgeLabel;html=1;align=center;verticalAlign=middle;resizable=0;points=[];" vertex="1" connectable="0" parent="HoLcE1Kdy49_vLGoXcqK-34">
          <mxGeometry x="-0.3083" y="-1" relative="1" as="geometry">
            <mxPoint as="offset" />
          </mxGeometry>
        </mxCell>
        <mxCell id="HoLcE1Kdy49_vLGoXcqK-35" value="" style="edgeStyle=orthogonalEdgeStyle;rounded=0;orthogonalLoop=1;jettySize=auto;html=1;" edge="1" parent="1" source="HoLcE1Kdy49_vLGoXcqK-28" target="HoLcE1Kdy49_vLGoXcqK-30">
          <mxGeometry relative="1" as="geometry" />
        </mxCell>
        <mxCell id="HoLcE1Kdy49_vLGoXcqK-36" value="Yes" style="edgeLabel;html=1;align=center;verticalAlign=middle;resizable=0;points=[];" vertex="1" connectable="0" parent="HoLcE1Kdy49_vLGoXcqK-35">
          <mxGeometry x="0.1556" relative="1" as="geometry">
            <mxPoint x="-5" as="offset" />
          </mxGeometry>
        </mxCell>
        <mxCell id="HoLcE1Kdy49_vLGoXcqK-39" value="" style="edgeStyle=orthogonalEdgeStyle;rounded=0;orthogonalLoop=1;jettySize=auto;html=1;" edge="1" parent="1" source="HoLcE1Kdy49_vLGoXcqK-28" target="HoLcE1Kdy49_vLGoXcqK-38">
          <mxGeometry relative="1" as="geometry" />
        </mxCell>
        <mxCell id="HoLcE1Kdy49_vLGoXcqK-28" value="Check" style="ellipse;whiteSpace=wrap;html=1;dashed=0;" vertex="1" parent="1">
          <mxGeometry x="370" y="549" width="80" height="80" as="geometry" />
        </mxCell>
        <mxCell id="HoLcE1Kdy49_vLGoXcqK-31" style="edgeStyle=orthogonalEdgeStyle;rounded=0;orthogonalLoop=1;jettySize=auto;html=1;entryX=0.5;entryY=1;entryDx=0;entryDy=0;" edge="1" parent="1" source="HoLcE1Kdy49_vLGoXcqK-30" target="HoLcE1Kdy49_vLGoXcqK-22">
          <mxGeometry relative="1" as="geometry" />
        </mxCell>
        <mxCell id="HoLcE1Kdy49_vLGoXcqK-30" value="Restore" style="ellipse;whiteSpace=wrap;html=1;dashed=0;" vertex="1" parent="1">
          <mxGeometry x="510" y="549" width="80" height="80" as="geometry" />
        </mxCell>
        <mxCell id="HoLcE1Kdy49_vLGoXcqK-33" value="Return Supplier&amp;nbsp;&lt;div&gt;&amp;amp; New One&lt;/div&gt;" style="ellipse;whiteSpace=wrap;html=1;dashed=0;" vertex="1" parent="1">
          <mxGeometry x="370" y="680" width="80" height="80" as="geometry" />
        </mxCell>
        <mxCell id="HoLcE1Kdy49_vLGoXcqK-38" value="Check" style="ellipse;whiteSpace=wrap;html=1;dashed=0;" vertex="1" parent="1">
          <mxGeometry x="210" y="549" width="80" height="80" as="geometry" />
        </mxCell>
        <mxCell id="HoLcE1Kdy49_vLGoXcqK-43" value="" style="edgeStyle=orthogonalEdgeStyle;rounded=0;orthogonalLoop=1;jettySize=auto;html=1;" edge="1" parent="1" source="HoLcE1Kdy49_vLGoXcqK-40" target="HoLcE1Kdy49_vLGoXcqK-42">
          <mxGeometry relative="1" as="geometry" />
        </mxCell>
        <mxCell id="HoLcE1Kdy49_vLGoXcqK-40" value="&lt;font style=&quot;font-size: 7px;&quot;&gt;Details(Opening or Closing Balancing)&lt;/font&gt;" style="ellipse;whiteSpace=wrap;html=1;dashed=0;" vertex="1" parent="1">
          <mxGeometry x="380" y="800" width="80" height="80" as="geometry" />
        </mxCell>
        <mxCell id="HoLcE1Kdy49_vLGoXcqK-44" value="" style="edgeStyle=orthogonalEdgeStyle;rounded=0;orthogonalLoop=1;jettySize=auto;html=1;" edge="1" parent="1" source="HoLcE1Kdy49_vLGoXcqK-41" target="HoLcE1Kdy49_vLGoXcqK-40">
          <mxGeometry relative="1" as="geometry" />
        </mxCell>
        <mxCell id="HoLcE1Kdy49_vLGoXcqK-41" value="Report" style="ellipse;whiteSpace=wrap;html=1;dashed=0;" vertex="1" parent="1">
          <mxGeometry x="220" y="800" width="80" height="80" as="geometry" />
        </mxCell>
        <mxCell id="HoLcE1Kdy49_vLGoXcqK-42" value="&lt;font style=&quot;font-size: 11px;&quot;&gt;Item Total Sale &amp;amp; Gross Profit&lt;/font&gt;" style="ellipse;whiteSpace=wrap;html=1;dashed=0;" vertex="1" parent="1">
          <mxGeometry x="540" y="800" width="80" height="80" as="geometry" />
        </mxCell>
        <mxCell id="HoLcE1Kdy49_vLGoXcqK-47" value="" style="edgeStyle=orthogonalEdgeStyle;rounded=0;orthogonalLoop=1;jettySize=auto;html=1;" edge="1" parent="1" source="HoLcE1Kdy49_vLGoXcqK-46" target="HoLcE1Kdy49_vLGoXcqK-40">
          <mxGeometry relative="1" as="geometry" />
        </mxCell>
        <mxCell id="HoLcE1Kdy49_vLGoXcqK-46" value="Sale Database" style="html=1;dashed=0;whiteSpace=wrap;shape=partialRectangle;right=0;left=0;" vertex="1" parent="1">
          <mxGeometry x="370" y="930" width="100" height="30" as="geometry" />
        </mxCell>
      </root>
    </mxGraphModel>
  </diagram>
</mxfile>
